<svg width="26" height="29" viewBox="0 0 26 29" fill="none"
  xmlns="http://www.w3.org/2000/svg">
  <path d="M9.50001 3.5C9.50001 2.80777 9.70528 2.13108 10.0899 1.55551C10.4745 0.979934 11.0211 0.53133 11.6606 0.266423C12.3002 0.00151649 13.0039 -0.0677952 13.6828 0.0672531C14.3618 0.202301 14.9854 0.535644 15.4749 1.02513C15.9644 1.51461 16.2977 2.13825 16.4328 2.81719C16.5678 3.49612 16.4985 4.19985 16.2336 4.83939C15.9687 5.47894 15.5201 6.02556 14.9445 6.41015C14.3689 6.79473 13.6922 7 13 7C12.0718 7 11.1815 6.63125 10.5251 5.97487C9.86876 5.3185 9.50001 4.42826 9.50001 3.5ZM25.45 10.5713C25.3589 10.1232 25.1142 9.72104 24.7582 9.43417C24.4022 9.1473 23.9572 8.99374 23.5 9H2.50001C2.04404 8.99998 1.60175 9.15576 1.24644 9.44154C0.891131 9.72731 0.644139 10.1259 0.546399 10.5713C0.448659 11.0167 0.506039 11.4821 0.709029 11.8904C0.91202 12.2987 1.24843 12.6253 1.66251 12.8163H1.67001L8.40626 15.7825L5.66626 26.195C5.45716 26.6734 5.44339 27.2145 5.62791 27.7029C5.81242 28.1913 6.18059 28.5882 6.65376 28.8088C6.91823 28.9343 7.20725 28.9996 7.50001 29C7.87703 29.0006 8.24653 28.8945 8.56589 28.6942C8.88526 28.4938 9.14148 28.2072 9.30501 27.8675L13 21.5L16.6975 27.875C16.9275 28.3428 17.331 28.7024 17.8222 28.8771C18.3134 29.0517 18.8533 29.0277 19.327 28.8102C19.8008 28.5926 20.1708 28.1987 20.3584 27.7123C20.546 27.226 20.5362 26.6856 20.3313 26.2063L17.5913 15.7938L24.3413 12.8238C24.7601 12.637 25.1004 12.3095 25.3029 11.898C25.5055 11.4865 25.5575 11.0171 25.45 10.5713Z" fill="#8CA69D"/>
</svg>
